<?xml version="1.0" standalone="no"?><!DOCTYPE svg PUBLIC "-//W3C//DTD SVG 1.1//EN" "http://www.w3.org/Graphics/SVG/1.1/DTD/svg11.dtd"><svg t="1611284088300" class="icon" viewBox="0 0 1024 1024" version="1.1" xmlns="http://www.w3.org/2000/svg" p-id="3675" xmlns:xlink="http://www.w3.org/1999/xlink" width="200" height="200"><defs><style type="text/css"></style></defs><path d="M715.82 854.5H308.18c-42.15 0-76.43-34.29-76.43-76.43V486.23c0-42.15 34.29-76.43 76.43-76.43h407.64c42.15 0 76.43 34.29 76.43 76.43v291.84c0.01 42.14-34.28 76.43-76.43 76.43zM308.18 460.75c-14.06 0-25.48 11.43-25.48 25.48v291.84c0 14.05 11.42 25.48 25.48 25.48h407.64c14.06 0 25.48-11.43 25.48-25.48V486.23c0-14.05-11.42-25.48-25.48-25.48H308.18z" p-id="3676" fill="#cdcdcd"></path><path d="M365.73 460.75c-14.08 0-25.48-11.41-25.48-25.48v-94.02c0-94.71 77.06-171.75 171.75-171.75 94.72 0 171.78 77.04 171.78 171.75 0 14.07-11.4 25.48-25.48 25.48s-25.48-11.41-25.48-25.48c0-66.61-54.19-120.8-120.82-120.8-66.61 0-120.8 54.19-120.8 120.8v94.02c0 14.07-11.39 25.48-25.47 25.48zM512 698.16c-14.08 0-25.48-11.41-25.48-25.48v-121.6c0-14.07 11.4-25.48 25.48-25.48s25.48 11.41 25.48 25.48v121.6c0 14.08-11.4 25.48-25.48 25.48z" p-id="3677" fill="#cdcdcd"></path></svg>